<?xml version="1.0" encoding="utf-8"?>
<!-- Generator: Adobe Illustrator 17.0.0, SVG Export Plug-In . SVG Version: 6.00 Build 0)  -->
<!DOCTYPE svg PUBLIC "-//W3C//DTD SVG 1.1//EN" "http://www.w3.org/Graphics/SVG/1.1/DTD/svg11.dtd">
<svg version="1.1" id="Layer_1" xmlns="http://www.w3.org/2000/svg" xmlns:xlink="http://www.w3.org/1999/xlink" x="0px" y="0px"
	 width="177.668px" height="150px" viewBox="0 0 177.668 150" enable-background="new 0 0 177.668 150" xml:space="preserve">
<path fill="#414042" d="M171.522,0H6.146C2.766,0,0,2.766,0,6.146v104.478c0,3.379,2.766,6.146,6.146,6.146h64.321v22.278H47.72V150
	h81.72v-10.952h-22.746v-22.278h64.829c3.381,0,6.146-2.766,6.146-6.146V6.146C177.668,2.766,174.903,0,171.522,0z M171.648,109.001
	H89.818v0.262c-0.963-0.101-1.937-0.152-2.923-0.152c-0.13,0-0.258,0.008-0.388,0.01v-0.119H5.962V6.613h165.686V109.001z"/>
</svg>
