<?xml version="1.0" encoding="utf-8"?>
<!-- Generator: Adobe Illustrator 17.0.0, SVG Export Plug-In . SVG Version: 6.00 Build 0)  -->
<!DOCTYPE svg PUBLIC "-//W3C//DTD SVG 1.1//EN" "http://www.w3.org/Graphics/SVG/1.1/DTD/svg11.dtd">
<svg version="1.1" id="Layer_1" xmlns="http://www.w3.org/2000/svg" xmlns:xlink="http://www.w3.org/1999/xlink" x="0px" y="0px"
	 width="177.668px" height="150px" viewBox="0 0 177.668 150" enable-background="new 0 0 177.668 150" xml:space="preserve">
<path fill-rule="evenodd" clip-rule="evenodd" fill="#FAA31B" d="M73.322,94.001c-5.271-5.707-8.314-14.29-8.805-24.549
	c-3.285-0.748-5.74-3.685-5.74-7.194c0-4.075,3.308-7.385,7.382-7.385c4.076,0,7.385,3.309,7.385,7.385
	c0,3.501-2.445,6.431-5.717,7.188c0.471,9.405,3.207,17.2,7.928,22.309c2.998,3.249,6.607,5.222,10.753,5.886V28.093l-7.442,0.046
	l8.897-15.63H11.86v90.593h74.647v-2.118C81.436,100.281,76.916,97.895,73.322,94.001z"/>
</svg>
